<?xml version="1.0" encoding="utf-8"?>
<!-- Generator: Adobe Illustrator 26.0.2, SVG Export Plug-In . SVG Version: 6.00 Build 0)  -->
<svg version="1.1" id="Слой_1" xmlns="http://www.w3.org/2000/svg" xmlns:xlink="http://www.w3.org/1999/xlink" x="0px" y="0px"
	 viewBox="0 0 200 200" style="enable-background:new 0 0 200 200;" xml:space="preserve">
<style type="text/css">
	.st0{fill:#FFFFFF;stroke:#000000;stroke-miterlimit:10;}
	.st1{stroke:#000000;stroke-miterlimit:10;}
	.st2{fill:none;stroke:#000000;stroke-width:6;stroke-linecap:round;stroke-miterlimit:10;}
	.st3{font-family:'Broadway';}
	.st4{font-size:23.2857px;}
</style>
<g>
	<rect x="44.47" y="57.77" class="st0" width="16.28" height="67.7"/>
	<rect x="77.04" y="57.77" class="st0" width="16.28" height="67.7"/>
	<rect x="60.75" y="57.77" class="st0" width="16.28" height="67.7"/>
	<rect x="109.6" y="57.77" class="st0" width="16.28" height="67.7"/>
	<rect x="93.32" y="57.77" class="st0" width="16.28" height="67.7"/>
	<rect x="142.16" y="57.77" class="st0" width="16.28" height="67.7"/>
	<rect x="125.88" y="57.77" class="st0" width="16.28" height="67.7"/>
	<rect x="55.49" y="57.77" class="st1" width="10.53" height="41.04"/>
	<rect x="71.77" y="57.77" class="st1" width="10.53" height="41.04"/>
	<rect x="104.33" y="57.77" class="st1" width="10.53" height="41.04"/>
	<rect x="120.61" y="57.77" class="st1" width="10.53" height="41.04"/>
	<rect x="136.89" y="57.77" class="st1" width="10.53" height="41.04"/>
</g>
<path class="st2" d="M22.36,65.46L97.37,7.57c0.73-0.57,1.75-0.58,2.5-0.04l26.79,19.41l49.61,35.95"/>
<path class="st1" d="M138.26,34.7l0.83-24.82c0.05-1.45,1.26-2.58,2.71-2.54l11.99,0.36c1.77,0.05,3.16,1.52,3.12,3.28l-0.79,37.3
	L138.26,34.7z"/>
<text transform="matrix(0.7163 0 0 1 47.392 147.4366)" class="st3 st4">Music House</text>
</svg>
